<svg xmlns="http://www.w3.org/2000/svg" width="800" height="760" fill="none" xmlns:v="https://vecta.io/nano"><path fill-rule="evenodd" d="M160.001 211.083c0-23.3-17.92-42.21-40-42.21h-80c-22.08 0-40 18.91-40 42.209s17.92 42.21 40 42.21h80c22.08 0 40-18.91 40-42.209zm266.279-42.21c-22.12 0-40 18.91-40 42.21s17.88 42.209 40 42.209h205.442c17.84 0 26.758 28.238 14.158 41.534l-67.32 73.782c-15.6 16.462-15.6 45.671 0 62.133 15.64 16.504 40.96 16.631 56.56.127L776.6 281.615c31.2-32.924 31.2-86.361 0-119.326l-14.238-15.111-127.2-134.522c-15.64-16.504-41.002-17.053-56.602-.549-15.64 16.504-15.64 42.125 0 58.629l67.242 67.619c12.6 13.296 3.679 30.518-14.161 30.518H426.28zM226.561 750.689l-86.279-165.377c-10.88-16.546-8.762-38.959 4.758-53.226 17.36-18.319 46.561-15.659 60.681 5.53l34.28 50.313v-358.57c0-23.3 17.079-42.337 39.199-42.337 28.4 0 39.16 27.142 39.16 42.041l.32 212.61 172.681 16.209c38.28 13.465 61.079 51.496 53.159 93.241l-13.279 149.969c-7.48 39.466-40.32 58.714-78.44 58.714H259.4c-13.16 0-25.359 2.322-32.839-9.117z" fill="#f60"/></svg>